<?xml version="1.0" encoding="utf-8"?>
<!-- Generator: Adobe Illustrator 22.0.1, SVG Export Plug-In . SVG Version: 6.00 Build 0)  -->
<svg version="1.1" id="Layer_1" xmlns="http://www.w3.org/2000/svg" xmlns:xlink="http://www.w3.org/1999/xlink" x="0px" y="0px"
	 viewBox="0 0 546.8 286.3" style="enable-background:new 0 0 546.8 286.3;" xml:space="preserve">
<style type="text/css">
	.st0{clip-path:url(#SVGID_2_);fill:#FBAB1D;}
	.st1{clip-path:url(#SVGID_2_);fill:#F26124;}
	.st2{clip-path:url(#SVGID_2_);fill:#FFFFFF;}
</style>
<g>
	<defs>
		<rect id="SVGID_1_" width="546.8" height="286.3"/>
	</defs>
	<clipPath id="SVGID_2_">
		<use xlink:href="#SVGID_1_"  style="overflow:visible;"/>
	</clipPath>
	<path class="st0" d="M544.1,140c-0.8-37.6-16.4-71.6-41.2-96.4c-25.5-25.5-60.7-41.2-99.6-41.2v54.4c0.1,0,0.1,0,0.2,0
		c1,0,2,0.1,3,0.1v-0.1c1,0.1,1.9,0.2,2.9,0.3c44,3,79,38.6,80.8,83H544.1z"/>
	<path class="st1" d="M477,189.7l8.9,35.5c0.8,3.1-2,5.8-5.1,5l-36.7-9.8c-10.6,5.6-22.4,9-35,9.8c-0.9,0.1-1.7,0.2-2.6,0.3v-0.1
		c-1,0-2,0.1-3,0.1c-0.1,0-0.1,0-0.2,0v53.5c38.9,0,74.1-15.8,99.6-41.2c24.9-24.9,40.5-59.2,41.2-97h-53.8
		C489.9,161.8,485.1,176.9,477,189.7"/>
	<path class="st2" d="M431.2,189.2c7.5-4.3,13.4-10.3,17.7-18c4.3-7.7,6.4-16.4,6.4-26.2c0-7.6-1.3-14.5-3.8-20.8
		c-2.5-6.3-6-11.6-10.5-16.1c-4.4-4.4-9.5-7.9-15.2-10.3c-5.7-2.4-11.6-3.6-17.9-3.6c-7.8,0-14.9,1.8-21.4,5.3
		c-6.5,3.5-11.9,8.7-16.3,15.5l-9.2-19.6h-29.3l19.8,37.6l-17.5,61.4h28.5l14.7-53c2.4-8.8,5.9-15,10.4-18.6c4.5-3.6,9.8-5.4,16-5.4
		c4.5,0,8.6,1.2,12.3,3.5c3.7,2.4,6.6,5.6,8.7,9.7c2.1,4.1,3.2,8.9,3.2,14.2c0,5.8-1.2,10.8-3.5,14.9c-2.4,4.1-5.5,7.3-9.4,9.5
		c-3.9,2.2-8.2,3.3-12.9,3.3c-2,0-4-0.2-6.2-0.6c-2.1-0.4-4.1-0.8-5.8-1.2l-5.3,22.6c2.9,0.7,6,1.2,9.4,1.7
		c3.4,0.5,7.1,0.7,11.2,0.7C415,195.7,423.7,193.5,431.2,189.2 M323.7,150.2V95.4h-39v23.9h11.7v31H323.7z M275.7,194.4v-99h-39
		v23.9h11.7v75.1H275.7z M217.5,194.4l-9.6-75.1H229V95.4h-65.9v23.9h17.5l9.6,75.1H217.5z M152,150.2V95.4h-39v23.9h11.7v31H152z
		 M37.3,145H10v81h27.3V145z M86.6,194.4l19.1-80.9V95.4H10v23.9h66.2l-17.1,75.1H86.6z"/>
	<path class="st2" d="M130,46.3h28.1v9.5c0,7-3.9,11-10.8,11h-1.5v8.5h2.6c9.8,0,18.6-6.4,18.6-19.1V37.8H130V46.3z M130.4,83.8h9
		V54.2h-9V83.8z M114.5,75.2h9V37.8h-9V75.2z M108,56.1V37.8H81.4v-9.9h-9v18.4H99v9.5c0,7-4.3,11-11.8,11h-2.7v8.5h3.7
		C98.6,75.2,108,68.9,108,56.1 M52.8,56.6v18.6h9V56.7c0-10.5-3.9-18.9-17.9-18.9H23.8v37.4h9v-29h10.5
		C49.7,46.3,52.8,49.5,52.8,56.6 M7.8,59h9V37.8h-9V59z"/>
	<path class="st1" d="M234.2,154.2c4.2,0,7.6-3.4,7.6-7.6c0-4.2-3.4-7.6-7.6-7.6c-4.2,0-7.6,3.4-7.6,7.6
		C226.6,150.8,230,154.2,234.2,154.2"/>
</g>
</svg>
